<svg xmlns="http://www.w3.org/2000/svg" width="24" height="24" fill="none" stroke="currentColor" stroke-width="2">
<path d="M12 15.5a3.5 3.5 0 1 0 0-7 3.5 3.5 0 0 0 0 7Z"/>
<path d="M19.4 15a1.65 1.65 0 0 0 .33 1.82l.06.06a2 2 0 1 1-2.83 2.83l-.06-.06A1.65 1.65 0 0 0 15 19.4a1.65 1.65 0 0 0-1 .6 1.65 1.65 0 0 0-.33 1.82l.02.07a2 2 0 1 1-3.38 0l.02-.07A1.65 1.65 0 0 0 9 19.4a1.65 1.65 0 0 0-1.82-.33l-.07.03a2 2 0 1 1-2.76-2.76l.07-.03A1.65 1.65 0 0 0 4.6 15a1.65 1.65 0 0 0-.6-1 1.65 1.65 0 0 0-1.82-.33l-.07.03a2 2 0 1 1 0-3.38l.07.02A1.65 1.65 0 0 0 4.6 9a1.65 1.65 0 0 0-.33-1.82l-.06-.06A2 2 0 1 1 7.04 4.3l.06.06A1.65 1.65 0 0 0 9 4.6a1.65 1.65 0 0 0 1-.6 1.65 1.65 0 0 0 .33-1.82L10.31 2a2 2 0 1 1 3.38 0l-.02.07A1.65 1.65 0 0 0 15 4.6c.39 0 .78-.07 1.14-.21l.06-.02a2 2 0 1 1 2.76 2.76l-.06.02c-.34.14-.65.34-.93.6-.28.26-.5.57-.66.91.16.34.38.65.66.91.28.26.59.46.93.6Z"/></svg>
